

<svg width="451pt" height="155pt" viewBox="0 0 451 155" version="1.1" xmlns="http://www.w3.org/2000/svg">
<g id="#00d2ffff">
<path fill="#00d2ff" opacity="1.00" d=" M 243.01 0.00 L 244.85 0.00 C 240.64 9.38 235.81 18.46 231.47 27.78 C 231.24 28.26 230.78 29.21 230.55 29.69 C 228.42 34.12 226.27 38.54 224.14 42.97 C 240.97 50.73 257.76 58.61 274.58 66.40 C 275.51 66.96 276.45 66.94 277.42 66.36 C 277.72 66.98 278.03 67.60 278.34 68.21 C 280.09 68.94 281.84 69.69 283.58 70.47 C 287.69 72.36 291.87 74.15 295.71 76.56 C 291.54 75.23 287.52 73.50 283.47 71.86 C 281.50 71.06 279.53 70.26 277.56 69.46 C 258.97 62.02 240.32 54.75 221.73 47.31 C 213.75 60.84 205.95 74.47 197.98 88.00 C 187.25 105.85 177.50 124.42 164.91 141.06 C 166.64 135.82 169.66 131.14 171.97 126.15 C 186.11 98.74 201.49 72.00 216.57 45.10 C 199.60 37.29 182.60 29.53 165.64 21.69 C 163.97 20.92 162.29 20.15 160.62 19.39 C 151.59 15.13 142.17 11.62 133.51 6.62 C 143.61 10.18 153.40 14.54 163.37 18.43 C 165.24 19.17 167.12 19.90 168.98 20.65 C 185.74 27.34 202.58 33.82 219.28 40.66 C 221.79 36.56 224.33 32.48 226.88 28.40 C 227.26 27.77 227.64 27.14 228.03 26.51 C 233.45 17.70 238.89 8.91 244.16 0.01 L 243.01 0.00 Z"></path>
<path fill="#00d2ff" opacity="1.00" d=" M 20.11 66.81 C 29.77 66.78 39.43 66.82 49.09 66.78 C 52.31 66.83 55.73 66.82 58.65 68.37 C 61.03 69.53 62.05 72.46 61.32 74.94 C 60.21 79.10 58.74 83.18 57.00 87.11 C 55.54 90.38 52.47 92.41 49.44 94.04 C 51.10 95.60 53.65 97.29 53.06 99.96 C 52.27 104.43 50.43 108.62 48.94 112.89 C 46.77 119.04 40.46 123.33 33.96 123.24 C 22.64 123.38 11.32 123.23 0.00 123.31 L 0.00 121.18 L 0.10 122.94 C 6.86 104.26 13.47 85.53 20.11 66.81 M 27.57 77.53 C 26.17 81.22 24.90 84.95 23.50 88.64 C 29.74 88.40 36.01 88.85 42.24 88.41 C 46.30 87.87 47.17 83.15 48.09 79.89 C 48.63 78.17 46.21 77.63 44.98 77.65 C 39.18 77.48 33.37 77.72 27.57 77.53 M 19.71 99.43 C 18.19 103.77 16.65 108.11 15.08 112.44 C 21.38 112.26 27.70 112.65 33.99 112.22 C 38.58 111.84 39.42 106.37 40.54 102.83 C 41.27 100.90 39.16 99.67 37.50 99.65 C 31.58 99.22 25.64 99.61 19.71 99.43 Z"></path>
<path fill="#00d2ff" opacity="1.00" d=" M 71.96 67.37 C 76.00 67.46 80.04 67.38 84.07 67.31 C 77.40 85.97 70.52 104.56 63.88 123.24 C 59.98 123.18 56.08 123.08 52.17 123.04 C 58.70 104.46 65.25 85.88 71.96 67.37 Z"></path>
<path fill="#00d2ff" opacity="1.00" d=" M 75.52 109.96 C 79.29 100.00 82.71 89.90 86.68 80.02 C 90.03 80.25 93.39 80.23 96.75 80.03 C 93.23 90.55 88.82 100.75 85.55 111.36 C 86.75 113.29 89.10 112.86 91.05 112.92 C 94.02 112.86 97.00 113.05 99.97 112.78 C 102.17 112.29 103.13 109.97 103.92 108.10 C 107.42 98.81 110.79 89.48 114.25 80.17 C 117.87 80.18 121.50 80.18 125.12 80.14 C 121.35 90.58 117.49 100.99 113.70 111.42 C 112.24 115.55 109.76 119.64 105.71 121.64 C 101.79 123.68 97.24 123.28 92.97 123.30 C 88.68 123.22 84.39 123.43 80.11 123.23 C 77.46 123.17 74.42 121.77 73.89 118.91 C 73.26 115.84 74.55 112.82 75.52 109.96 Z"></path>
<path fill="#00d2ff" opacity="1.00" d=" M 134.37 83.25 C 139.07 79.45 145.41 80.74 150.98 80.54 C 155.84 80.78 160.93 79.82 165.60 81.52 C 168.57 82.69 168.82 86.39 168.01 89.05 C 166.42 95.13 163.83 100.89 161.83 106.85 C 152.22 106.87 142.62 106.84 133.02 106.86 C 132.67 108.74 130.93 110.81 132.29 112.63 C 133.73 113.39 135.43 113.23 137.01 113.31 C 144.68 113.26 152.35 113.34 160.02 113.24 C 158.80 116.74 157.54 120.22 156.17 123.66 C 146.90 123.40 137.62 123.72 128.35 123.51 C 125.03 123.39 121.00 121.82 120.28 118.20 C 119.37 112.83 122.27 107.91 123.87 102.97 C 126.60 96.09 128.20 88.03 134.37 83.25 M 136.35 97.66 C 142.11 97.62 147.88 97.57 153.65 97.69 C 154.09 95.62 156.67 92.39 153.95 91.02 C 149.66 90.65 145.30 90.66 141.00 91.02 C 137.99 91.73 137.53 95.30 136.35 97.66 Z"></path>
</g>
<g id="#ffffffff">
<path fill="#ffffff" opacity="1.00" d=" M 163.37 18.43 C 171.34 15.88 179.85 16.03 188.10 16.73 C 201.77 18.14 215.19 21.63 228.03 26.51 C 227.64 27.14 227.26 27.77 226.88 28.40 C 214.68 23.93 202.01 20.50 189.03 19.40 C 182.35 18.97 175.50 18.84 168.98 20.65 C 167.12 19.90 165.24 19.17 163.37 18.43 Z"></path>
<path fill="#ffffff" opacity="1.00" d=" M 153.57 29.00 C 153.62 24.58 157.14 21.49 160.62 19.39 C 162.29 20.15 163.97 20.92 165.64 21.69 C 162.23 23.69 158.75 26.68 158.78 31.00 C 159.04 36.96 163.00 41.91 166.98 46.02 C 175.52 54.46 186.00 60.67 196.80 65.75 C 196.59 66.51 196.38 67.27 196.18 68.03 C 183.83 61.98 171.56 55.10 161.89 45.14 C 157.73 40.72 153.55 35.36 153.57 29.00 Z"></path>
<path fill="#ffffff" opacity="1.00" d=" M 230.55 29.69 C 230.78 29.21 231.24 28.26 231.47 27.78 C 242.41 32.22 253.05 37.51 262.76 44.28 C 271.68 50.90 281.95 58.68 283.58 70.47 C 281.84 69.69 280.09 68.94 278.34 68.21 C 278.03 67.60 277.72 66.98 277.42 66.36 C 275.63 60.83 272.08 56.08 267.85 52.16 C 257.13 42.16 243.86 35.51 230.55 29.69 Z"></path>
<path fill="#ffffff" opacity="1.00" d=" M 214.34 73.46 C 217.37 69.04 219.97 64.33 223.22 60.06 C 223.23 81.48 223.20 102.90 223.23 124.32 C 219.51 124.30 215.78 124.31 212.06 124.31 C 212.04 117.84 212.19 111.37 211.90 104.90 C 205.94 104.97 199.97 104.75 194.01 105.07 C 196.21 101.48 198.56 97.98 200.83 94.44 C 204.52 94.51 208.21 94.47 211.90 94.53 C 212.21 89.34 212.07 84.15 211.96 78.96 C 211.74 76.81 213.32 75.17 214.34 73.46 Z"></path>
<path fill="#ffffff" opacity="1.00" d=" M 289.87 123.68 C 296.48 104.43 302.94 85.13 309.68 65.93 C 313.31 66.14 316.96 66.14 320.59 65.92 C 319.04 70.49 317.42 75.03 315.92 79.61 C 321.93 79.60 327.94 79.47 333.95 79.64 C 336.39 79.78 339.44 80.45 340.53 82.95 C 341.62 86.47 340.39 90.16 339.34 93.54 C 335.90 103.59 332.52 113.66 329.04 123.70 C 325.38 123.60 321.73 123.63 318.07 123.70 C 321.25 114.28 324.56 104.90 327.65 95.44 C 328.04 93.76 329.22 91.29 327.06 90.35 C 322.15 89.87 317.20 90.23 312.28 90.15 C 308.50 101.35 304.70 112.54 300.79 123.69 C 297.15 123.62 293.51 123.63 289.87 123.68 Z"></path>
<path fill="#ffffff" opacity="1.00" d=" M 277.56 69.46 C 279.53 70.26 281.50 71.06 283.47 71.86 C 283.16 72.53 282.54 73.89 282.23 74.56 C 279.70 74.94 277.12 74.89 274.58 75.16 C 275.72 73.34 276.75 71.46 277.56 69.46 Z"></path>
<path fill="#ffffff" opacity="1.00" d=" M 350.92 77.10 C 354.38 74.69 359.73 74.97 362.68 78.11 C 360.42 81.59 355.46 81.68 351.98 80.22 C 350.71 79.87 349.51 78.01 350.92 77.10 Z"></path>
<path fill="#ffffff" opacity="1.00" d=" M 229.36 88.09 C 231.36 83.45 235.91 79.81 241.07 79.65 C 245.96 79.44 250.87 79.67 255.77 79.52 C 254.49 82.98 253.27 86.45 252.05 89.93 C 247.98 90.18 242.03 88.50 239.81 93.05 C 235.84 102.30 233.29 112.13 229.37 121.38 C 229.14 110.30 229.21 99.18 229.36 88.09 Z"></path>
<path fill="#ffffff" opacity="1.00" d=" M 263.42 83.37 C 266.18 80.63 270.22 79.76 273.98 79.66 C 281.96 79.59 289.94 79.73 297.91 79.60 C 296.80 83.17 295.55 86.70 294.30 90.23 C 287.50 90.26 280.69 90.00 273.90 90.35 C 271.31 90.39 269.55 92.59 268.80 94.86 C 267.08 99.56 265.50 104.32 263.90 109.06 C 263.28 110.34 262.96 112.80 265.00 112.93 C 272.16 113.34 279.36 113.13 286.53 113.01 C 285.33 116.58 284.12 120.14 282.84 123.68 C 274.90 123.59 266.96 123.68 259.02 123.64 C 256.47 123.56 253.40 123.42 251.70 121.24 C 249.92 118.82 250.78 115.66 251.42 112.99 C 253.19 106.95 255.45 101.05 257.43 95.07 C 258.89 90.95 260.13 86.46 263.42 83.37 Z"></path>
<path fill="#ffffff" opacity="1.00" d=" M 420.82 81.74 C 427.05 80.17 433.60 81.24 439.97 80.91 C 444.02 80.95 450.37 80.75 451.00 86.09 L 451.00 87.68 C 449.91 94.38 447.16 100.65 445.19 107.11 C 435.73 107.07 426.26 107.19 416.80 107.04 C 416.50 108.89 415.05 110.96 416.23 112.74 C 418.06 113.51 420.09 113.35 422.04 113.40 C 429.29 113.35 436.54 113.41 443.78 113.35 C 442.58 116.74 441.48 120.17 440.36 123.59 C 431.36 123.51 422.35 123.65 413.34 123.53 C 409.72 123.50 405.34 121.93 404.53 117.95 C 403.62 112.03 406.87 106.55 408.36 100.98 C 410.70 93.76 412.88 84.72 420.82 81.74 M 419.86 97.89 C 425.56 97.85 431.27 97.88 436.97 97.87 C 437.47 96.12 437.97 94.36 438.48 92.61 C 438.09 92.31 437.32 91.69 436.93 91.38 C 432.91 91.01 428.85 91.18 424.82 91.29 C 421.44 91.43 420.82 95.39 419.86 97.89 Z"></path>
<path fill="#ffffff" opacity="1.00" d=" M 366.07 123.69 C 366.40 109.80 366.89 95.90 367.59 82.02 C 371.47 82.25 375.35 82.19 379.24 82.12 C 378.25 92.36 377.57 102.62 376.52 112.85 C 383.45 102.71 389.90 92.23 396.78 82.05 C 400.91 82.26 405.04 82.16 409.17 82.11 C 400.06 95.36 390.85 108.54 381.76 121.80 C 381.09 122.69 380.48 124.08 379.09 123.67 C 374.75 123.65 370.41 123.59 366.07 123.69 Z"></path>
<path fill="#ffffff" opacity="1.00" d=" M 348.85 85.99 C 352.58 86.12 356.31 86.13 360.04 85.95 C 355.92 98.57 351.74 111.19 347.39 123.74 C 343.72 123.90 340.05 123.68 336.39 123.96 C 340.48 111.28 344.71 98.65 348.85 85.99 Z"></path>
<path fill="#ffffff" opacity="1.00" d=" M 162.60 123.86 C 169.69 113.33 176.98 102.91 183.67 92.13 C 183.12 95.06 181.48 97.60 180.13 100.20 C 175.98 108.04 172.10 116.01 168.06 123.91 C 166.24 123.87 164.42 123.87 162.60 123.86 Z"></path>
<path fill="#ffffff" opacity="1.00" d=" M 279.69 140.16 C 280.14 137.63 280.75 135.12 281.58 132.69 C 283.13 132.70 284.67 132.72 286.23 132.72 L 285.73 134.43 C 289.13 134.38 292.54 134.40 295.95 134.40 C 296.73 131.89 299.53 132.94 301.49 132.65 C 300.75 135.27 300.00 137.89 299.25 140.51 C 292.73 140.25 286.18 140.83 279.69 140.16 M 284.45 138.00 C 288.03 138.21 291.62 138.10 295.20 138.13 C 295.29 137.80 295.45 137.14 295.53 136.81 C 292.67 136.85 289.82 136.78 286.96 136.82 C 285.91 136.71 285.07 137.10 284.45 138.00 Z"></path>
<path fill="#ffffff" opacity="1.00" d=" M 308.33 133.22 C 313.90 133.36 319.49 133.10 325.06 133.35 C 328.40 134.41 325.71 138.52 325.40 140.80 C 320.72 140.68 316.04 140.57 311.37 140.76 C 311.04 141.01 310.36 141.51 310.03 141.76 C 315.15 142.11 320.29 141.86 325.42 141.90 C 325.08 142.97 324.73 144.03 324.39 145.10 C 318.57 144.94 312.73 145.30 306.91 144.92 C 303.79 143.66 305.64 139.15 308.04 138.10 C 312.40 137.51 316.84 137.85 321.24 137.95 C 321.34 137.56 321.54 136.77 321.64 136.38 C 316.87 136.46 312.09 136.29 307.33 136.58 C 307.58 135.74 308.08 134.06 308.33 133.22 Z"></path>
<path fill="#ffffff" opacity="1.00" d=" M 343.45 133.49 C 346.36 132.53 350.80 133.15 351.28 136.84 C 350.75 141.15 349.41 145.37 348.16 149.53 C 346.42 154.19 338.64 156.55 335.75 151.84 C 334.78 148.20 336.91 144.59 337.52 141.03 C 338.10 137.75 340.05 134.43 343.45 133.49 M 344.17 136.99 C 341.73 139.23 341.94 142.94 340.82 145.87 C 340.47 147.47 339.09 150.84 341.98 150.60 C 344.91 148.98 344.58 144.99 345.68 142.19 C 346.24 140.39 347.68 135.95 344.17 136.99 Z"></path>
<path fill="#ffffff" opacity="1.00" d=" M 354.63 134.73 C 355.11 132.76 358.48 131.60 359.17 134.06 C 358.83 136.45 358.09 138.76 357.50 141.10 C 358.37 141.03 360.13 140.90 361.00 140.84 C 360.67 142.25 360.34 143.66 360.01 145.07 C 358.82 145.06 357.64 145.06 356.47 145.05 C 355.61 148.24 354.77 151.44 353.97 154.64 C 352.74 154.76 351.52 154.88 350.30 155.00 L 349.31 155.00 C 350.97 148.22 352.66 141.43 354.63 134.73 Z"></path>
<path fill="#ffffff" opacity="1.00" d=" M 380.90 135.00 C 381.19 132.88 384.77 131.49 385.57 134.00 C 385.24 136.39 384.47 138.69 383.96 141.03 C 384.84 140.99 386.61 140.89 387.49 140.85 C 387.08 142.28 386.68 143.71 386.28 145.15 C 385.43 145.10 383.72 145.00 382.87 144.95 C 382.00 148.25 381.15 151.55 380.25 154.84 C 378.70 154.80 377.16 154.78 375.62 154.77 C 377.49 148.21 379.00 141.55 380.90 135.00 Z"></path>
<path fill="#ffffff" opacity="1.00" d=" M 396.46 133.60 C 398.98 132.82 402.33 132.73 404.10 135.04 C 405.55 137.33 404.22 140.07 403.72 142.46 C 402.57 146.29 402.27 151.25 398.23 153.28 C 395.21 155.03 389.91 154.98 388.71 151.03 C 388.68 147.25 390.22 143.65 391.05 139.99 C 391.64 137.13 393.63 134.53 396.46 133.60 M 397.29 137.34 C 394.62 140.49 394.64 145.22 393.38 149.07 C 393.76 149.47 394.51 150.25 394.88 150.65 C 398.61 149.57 397.99 144.74 399.28 141.83 C 400.11 139.96 400.51 135.52 397.29 137.34 Z"></path>
<path fill="#ffffff" opacity="1.00" d=" M 408.38 135.00 C 408.91 132.71 411.79 131.99 413.34 133.81 C 411.50 140.76 409.62 147.69 407.91 154.67 C 406.32 154.75 404.74 154.82 403.16 154.88 C 404.86 148.24 406.52 141.59 408.38 135.00 Z"></path>
<path fill="#ffffff" opacity="1.00" d=" M 418.97 133.17 C 420.53 133.16 422.11 133.15 423.69 133.15 C 423.51 133.96 423.16 135.58 422.98 136.38 C 426.30 136.37 429.62 136.38 432.94 136.36 C 433.24 135.29 433.54 134.22 433.86 133.15 C 435.40 133.14 436.95 133.12 438.51 133.08 C 437.37 137.62 436.17 142.14 434.99 146.66 C 429.10 146.54 423.21 146.83 417.34 146.53 C 417.07 146.35 416.53 146.00 416.26 145.82 C 416.20 141.52 418.21 137.40 418.97 133.17 M 421.84 140.05 C 421.72 141.02 421.60 142.01 421.49 142.99 C 424.71 142.76 427.95 142.78 431.18 142.91 C 431.43 141.92 431.68 140.93 431.94 139.93 C 428.57 140.11 425.21 140.08 421.84 140.05 Z"></path>
<path fill="#ffffff" opacity="1.00" d=" M 365.74 137.75 C 364.94 136.30 365.30 134.23 367.08 133.73 C 370.38 133.66 373.81 133.25 377.04 134.07 C 378.32 135.50 377.28 137.41 377.02 138.99 C 375.95 143.10 374.91 147.59 371.56 150.51 C 368.51 153.34 364.19 154.00 360.19 153.79 C 360.46 152.63 360.74 151.48 361.04 150.33 C 364.84 150.01 368.98 148.92 370.70 145.11 C 367.98 145.16 365.27 145.22 362.55 145.25 C 362.95 143.87 363.37 142.49 363.78 141.12 C 366.49 141.24 369.22 141.25 371.94 141.23 C 372.14 140.33 372.53 138.54 372.72 137.65 C 370.39 137.66 368.06 137.69 365.74 137.75 Z"></path>
<path fill="#ffffff" opacity="1.00" d=" M 278.19 141.35 C 285.71 141.81 293.26 141.64 300.79 141.44 C 300.52 142.26 300.00 143.92 299.73 144.74 C 292.18 144.24 284.59 144.48 277.03 144.59 C 277.32 143.78 277.90 142.16 278.19 141.35 Z"></path>
<path fill="#ffffff" opacity="1.00" d=" M 278.40 148.35 C 277.58 147.53 278.30 144.88 279.84 145.61 C 285.79 145.74 291.75 145.42 297.68 145.85 C 297.40 147.70 296.96 149.53 296.49 151.34 C 291.40 151.23 286.32 151.34 281.24 151.24 C 281.27 151.52 281.33 152.08 281.36 152.37 C 286.54 152.26 291.72 152.35 296.91 152.26 L 296.23 154.53 C 289.82 154.92 283.29 154.85 276.86 154.56 C 274.93 152.99 276.38 150.57 277.85 149.28 C 282.66 149.61 287.51 149.56 292.33 149.30 C 287.90 147.61 282.97 149.28 278.40 148.35 Z"></path>
<path fill="#ffffff" opacity="1.00" d=" M 302.86 150.13 C 303.20 148.81 303.55 147.49 303.90 146.17 C 311.14 146.46 318.40 146.43 325.65 146.23 C 325.23 147.53 324.81 148.84 324.39 150.14 C 321.54 150.11 318.68 150.10 315.84 150.02 C 315.36 151.68 314.88 153.34 314.40 155.00 L 313.42 155.00 C 312.50 154.96 310.66 154.89 309.74 154.86 C 310.16 153.25 310.58 151.65 310.99 150.05 C 308.28 150.08 305.57 150.10 302.86 150.13 Z"></path>
<path fill="#ffffff" opacity="1.00" d=" M 413.55 150.27 C 421.03 150.40 428.51 150.35 435.99 150.30 C 435.68 151.64 435.35 152.97 435.04 154.30 C 427.49 154.34 419.95 154.25 412.40 154.36 C 412.77 152.99 413.16 151.63 413.55 150.27 Z"></path>
</g>
</svg>
